HIERARCHY
ROOT root
{
	OFFSET 0.000000 0.000000 0.000000
	CHANNELS 6 Xposition Yposition Zposition Zrotation Yrotation Xrotation
	JOINT lhip
	{
		OFFSET 0.058581 -0.082280 -0.017664
		CHANNELS 3 Zrotation Yrotation Xrotation
		JOINT lknee
		{
			OFFSET 0.043451 -0.386469 0.008037
			CHANNELS 3 Zrotation Yrotation Xrotation
			JOINT lankle
			{
				OFFSET -0.014790 -0.426874 -0.037428
				CHANNELS 3 Zrotation Yrotation Xrotation
				JOINT ltoe
				{
					OFFSET 0.041054 -0.060286 0.122042
					CHANNELS 3 Zrotation Yrotation Xrotation
					End Site
					{
						OFFSET 0.000000 0.000000 0.000000
					}
				}
			}
		}
	}
	JOINT rhip
	{
		OFFSET -0.060310 -0.090513 -0.013543
		CHANNELS 3 Zrotation Yrotation Xrotation
		JOINT rknee
		{
			OFFSET -0.043257 -0.383688 -0.004843
			CHANNELS 3 Zrotation Yrotation Xrotation
			JOINT rankle
			{
				OFFSET 0.019056 -0.420046 -0.034562
				CHANNELS 3 Zrotation Yrotation Xrotation
				JOINT rtoe
				{
					OFFSET -0.034840 -0.062106 0.130323
					CHANNELS 3 Zrotation Yrotation Xrotation
					End Site
					{
						OFFSET 0.000000 0.000000 0.000000
					}
				}
			}
		}
	}
	JOINT lowerback
	{
		OFFSET 0.004439 0.124404 -0.038385
		CHANNELS 3 Zrotation Yrotation Xrotation
		JOINT upperback
		{
			OFFSET 0.004488 0.137956 0.026820
			CHANNELS 3 Zrotation Yrotation Xrotation
			JOINT chest
			{
				OFFSET -0.002265 0.056032 0.002855
				CHANNELS 3 Zrotation Yrotation Xrotation
				JOINT lowerneck
				{
					OFFSET -0.013390 0.211636 -0.033468
					CHANNELS 3 Zrotation Yrotation Xrotation
					JOINT upperneck
					{
						OFFSET 0.010113 0.088937 0.050410
						CHANNELS 3 Zrotation Yrotation Xrotation
						End Site
						{
							OFFSET 0.000000 0.000000 0.000000
						}
					}
				}
				JOINT lclavicle
				{
					OFFSET 0.071702 0.114000 -0.018898
					CHANNELS 3 Zrotation Yrotation Xrotation
					JOINT lshoulder
					{
						OFFSET 0.122921 0.045205 -0.019046
						CHANNELS 3 Zrotation Yrotation Xrotation
						JOINT lelbow
						{
							OFFSET 0.255332 -0.015649 -0.022946
							CHANNELS 3 Zrotation Yrotation Xrotation
							JOINT lwrist
							{
								OFFSET 0.265709 0.012698 -0.007375
								CHANNELS 3 Zrotation Yrotation Xrotation
								End Site
								{
									OFFSET 0.000000 0.000000 0.000000
								}
							}
						}
					}
				}
				JOINT rclavicle
				{
					OFFSET -0.082954 0.112472 -0.023707
					CHANNELS 3 Zrotation Yrotation Xrotation
					JOINT rshoulder
					{
						OFFSET -0.113228 0.046853 -0.008472
						CHANNELS 3 Zrotation Yrotation Xrotation
						JOINT relbow
						{
							OFFSET -0.260127 -0.014369 -0.031269
							CHANNELS 3 Zrotation Yrotation Xrotation
							JOINT rwrist
							{
								OFFSET -0.269108 0.006794 -0.006027
								CHANNELS 3 Zrotation Yrotation Xrotation
								End Site
								{
									OFFSET 0.000000 0.000000 0.000000
								}
							}
						}
					}
				}
			}
		}
	}
}
MOTION
Frames: 7
Frame Time: 0.033333
-0.259247 0.971491 0.953748 23.255627 -3.565927 88.756964 18.205709 11.750661 -3.622884 -7.916136 1.846408 38.311287 -6.977292 19.150069 -10.049089 0.000000 -0.000000 0.000000 -7.165234 -12.568371 -29.608490 -1.220411 -11.790620 32.150573 -2.810859 -20.198703 -22.682227 0.000000 -0.000000 0.000000 0.288664 -3.850923 10.287155 -1.315425 -3.939893 -6.773439 1.890742 -0.341009 4.616769 -2.752400 7.899172 37.433989 8.389839 -4.299653 -15.392970 31.391009 -12.647488 -22.007067 10.976965 -32.183343 -35.832052 26.145386 -24.804028 -19.948774 -19.195381 -15.368100 15.776363 -38.717858 9.473272 -23.517700 -4.709381 18.041204 -36.019318 -20.424583 20.601914 -26.273760 20.149471 18.071584 -17.511894 
-0.257163 0.945184 0.960350 20.831194 -3.515937 88.864622 19.658301 10.355134 -6.063238 -9.196868 1.374975 44.821490 -5.555721 16.855613 2.801484 0.000000 -0.000000 0.000000 -7.181182 -10.788537 -27.589712 -0.835298 -12.988809 31.702486 -4.400162 -20.320115 -22.434459 0.000000 -0.000000 0.000000 0.186727 -3.345525 9.941906 -1.125943 -3.876319 -5.659116 2.450264 -0.153467 3.262852 -2.410678 8.062465 39.440866 8.913513 -4.896705 -16.169542 31.793540 -12.771822 -21.998073 11.771911 -30.786234 -36.275075 26.896403 -24.955905 -20.639674 -17.597862 -16.837237 15.124140 -38.933967 9.784226 -22.903188 -3.769070 16.826579 -34.756747 -19.643405 19.677203 -25.664586 19.487730 18.470522 -18.436665 
-0.255370 0.920324 0.961931 19.857717 -3.859013 88.815942 20.418759 9.551745 -10.479695 -8.893566 2.493523 51.419252 -4.513232 17.168043 9.842924 0.000000 -0.000000 0.000000 -7.104859 -12.308993 -25.974750 -0.004965 -12.124942 31.478554 -5.752354 -19.790878 -22.318437 0.000000 -0.000000 0.000000 -0.186259 -2.097268 10.019317 -0.972272 -4.226177 -6.318740 2.881262 -0.399167 3.519446 -2.394388 7.992506 39.648152 8.625477 -5.762377 -15.279063 32.144538 -12.495776 -21.848275 12.856770 -30.172712 -37.944764 28.443180 -24.911248 -22.294295 -18.273968 -15.457803 16.276816 -38.897885 9.081419 -22.755479 -2.797902 16.054749 -34.208561 -19.269599 17.602025 -25.569245 21.662420 17.677483 -17.574079 
-0.253694 0.897099 0.961446 18.812619 -4.273838 87.855228 20.810098 10.731422 -13.975948 -7.702172 4.399709 55.353266 -2.258275 19.977266 2.672218 0.000000 -0.000000 0.000000 -7.198289 -12.816872 -23.883849 0.241366 -10.467405 32.308488 -5.026077 -19.603945 -24.535385 0.000000 -0.000000 0.000000 -0.771668 -0.980267 10.969340 -0.918233 -4.382822 -6.903858 2.859411 -0.345001 4.521062 -1.692549 8.719258 39.511144 7.970550 -6.608102 -14.660434 32.144623 -11.223879 -22.261988 14.639967 -30.557094 -40.509714 29.445187 -24.504971 -24.253997 -18.892806 -14.764295 16.906300 -38.345968 7.903869 -22.927431 -1.176980 15.361638 -33.926511 -19.523918 15.953077 -25.311955 21.949404 17.001914 -18.259654 
-0.252959 0.874916 0.960320 17.652572 -4.007932 86.938438 21.231256 12.752884 -17.464621 -6.029090 6.890767 55.172252 -1.854460 22.038990 -3.997018 0.000000 -0.000000 0.000000 -6.490967 -11.669987 -22.198781 -0.043577 -9.414487 33.762226 -4.233375 -19.589841 -26.592761 0.000000 -0.000000 0.000000 -0.922755 -0.327520 12.450705 -0.887716 -4.315845 -7.663931 2.803438 -0.197629 5.071686 -1.216528 9.548521 39.594404 7.226874 -7.795795 -14.360286 31.892011 -9.480036 -22.960638 15.481758 -31.880776 -42.160270 30.808127 -24.155484 -25.534328 -18.000640 -14.898285 17.652935 -37.491357 6.546210 -22.966975 0.919579 15.483388 -33.071185 -19.771783 14.357079 -25.250411 20.845899 16.832184 -20.497549 
-0.251897 0.852604 0.959754 16.978985 -3.553723 86.332690 20.562978 14.608625 -20.666822 -6.382301 7.807253 50.493949 -2.783214 20.574068 -8.339539 0.000000 -0.000000 0.000000 -5.612787 -11.116582 -20.617234 -0.494779 -8.795709 34.862860 -3.347653 -20.091829 -28.581930 0.000000 -0.000000 0.000000 -0.845892 0.021969 13.437775 -1.147123 -4.621212 -7.759148 2.669371 -0.087038 4.671994 -1.312101 10.456461 40.238271 6.865531 -8.315928 -14.322543 31.393295 -9.213786 -23.580414 16.455888 -32.819453 -43.272600 32.363983 -23.780726 -27.005524 -18.583927 -14.699524 19.043815 -36.494679 6.228111 -22.766394 2.622341 15.373870 -31.815688 -19.546002 12.812177 -24.949643 20.988371 16.850838 -21.742216 
-0.249726 0.829702 0.957388 16.329466 -2.981043 85.857554 19.228135 15.863199 -22.807590 -7.739805 7.529023 41.885441 -4.436219 17.522612 -11.247035 0.000000 -0.000000 0.000000 -4.851055 -11.614769 -18.746569 -0.847376 -8.740908 35.389230 -2.803805 -20.432851 -29.818246 0.000000 -0.000000 0.000000 -0.682240 0.329768 13.854138 -1.599433 -4.973422 -7.958280 2.464296 -0.006085 5.076576 -1.161512 11.405995 40.154616 6.531031 -8.791847 -14.258510 31.391310 -8.805019 -24.361356 16.599313 -34.247869 -43.659722 33.282663 -23.876893 -28.079889 -18.915971 -14.287680 19.920611 -36.342786 5.672383 -22.763957 4.937093 15.660288 -29.837099 -19.267426 10.870985 -24.610461 20.206626 16.928800 -23.360270 
